<svg width="95" height="107" viewBox="0 0 95 107" fill="none" xmlns="http://www.w3.org/2000/svg">
<path d="M5.2793 92.0098C9.07401 91.9776 12.3874 92.6712 15.2295 95.3164C16.7894 96.9874 18.6603 99.8078 19.7402 101.974C20.0387 102.289 20.1689 102.597 20.6143 103.677C17.677 105.326 17.6764 105.326 14.6797 107.008C13.7885 106.144 13.2876 105.411 12.6689 104.358C12.384 103.875 12.3834 103.874 12.0928 103.381C11.9158 103.079 11.7389 102.777 11.5566 102.466C11.4182 102.239 11.2793 102.011 11.1367 101.777C10.3967 100.563 10.3163 100.431 10.3076 99.9375C10.0362 99.9317 9.76394 99.9259 9.48438 99.9199C8.53949 99.9002 7.59438 99.8845 6.64941 99.8691C6.00488 99.8564 5.36034 99.8433 4.71582 99.8301C3.14393 99.7978 1.57203 99.772 0 99.7451V92.0977C1.37155 92.0705 2.74256 92.0507 4.11426 92.0352C4.69088 92.0226 4.69111 92.0226 5.2793 92.0098ZM9.74121 75.7051C20.9195 75.5517 20.9202 75.5522 24.5928 78.7109C25.9629 80.2366 26.9319 82.0035 27.9287 83.7852C28.2228 84.2411 28.2232 84.2425 28.5234 84.708C28.6565 84.9527 28.9258 85.4482 28.9258 85.4482C28.9474 85.4753 29.622 86.3232 29.7109 86.6533C30.0249 86.9421 30.1942 87.3248 30.4746 87.8623C30.6292 88.1521 30.784 88.4427 30.9434 88.7412C31.1005 89.0463 31.258 89.3526 31.4199 89.667C31.734 90.264 32.0495 90.8609 32.3652 91.457C32.5138 91.7406 32.6624 92.0252 32.8154 92.3174C33.1909 92.9924 33.5924 93.6017 34.0479 94.2236C34.5773 95.0892 34.5781 95.0902 34.5176 95.7598C34.1765 96.5871 33.862 96.7757 33.085 97.2041C32.7336 97.4 32.7327 97.4006 32.374 97.6006C32.1279 97.732 31.8815 97.8636 31.6279 97.999C31.2624 98.2039 31.2618 98.2049 30.8887 98.4141C29.0674 99.4126 29.0668 99.4121 27.9287 99.4121C27.7475 99.0862 27.5656 98.7596 27.3789 98.4238C27.1259 97.9708 26.8723 97.5174 26.6191 97.0645C26.4204 96.7074 26.4202 96.7064 26.2178 96.3428C25.5248 95.1066 24.816 93.886 24.0596 92.6875C23.921 92.4661 23.7824 92.2437 23.6396 92.0156C23.3732 91.5931 23.1019 91.173 22.8271 90.7559C22.3806 90.0444 22.0894 89.5372 22.0068 88.832C21.3495 88.124 20.4614 86.7248 19.8857 85.7598C19.7097 85.4681 19.5339 85.1755 19.3525 84.875C18.9877 84.1866 18.9561 84.1239 18.9531 83.6182C18.4889 83.6158 18.0257 83.6172 17.5654 83.6152C17.0564 83.6096 16.5471 83.6041 16.0381 83.5977C14.7106 83.582 13.3832 83.5712 12.0557 83.5625C10.696 83.5525 9.33615 83.5374 7.97656 83.5225C5.31783 83.494 2.65882 83.4722 0 83.4531V75.8057C2.42455 75.775 4.84885 75.7483 7.27344 75.7324C8.09605 75.7258 8.91865 75.7167 9.74121 75.7051ZM26.9307 59.6982C29.4927 59.8919 31.7882 60.5476 34.0195 62.5244C35.8377 64.3563 37.0246 66.6449 38.2441 68.8945C38.741 69.8062 39.2576 70.7064 39.7734 71.6074C39.9907 71.9875 40.2078 72.3682 40.4316 72.7598C41.4587 74.548 42.4974 76.3303 43.5352 78.1123C43.735 78.4567 43.9347 78.8014 44.1406 79.1562C45.0299 80.684 45.9248 82.205 46.8711 83.6982C47.0149 83.9273 47.1585 84.1566 47.3066 84.3926C47.5684 84.8064 47.8352 85.2173 48.1064 85.625C48.4493 86.169 48.4492 86.1696 48.875 87.1094C48.4982 88.2123 48.0102 88.6713 47.0049 89.2246C46.7702 89.3552 46.5348 89.4855 46.293 89.6201C45.9257 89.8173 45.925 89.8177 45.5508 90.0186C45.3057 90.1552 45.0601 90.2928 44.8076 90.4336C42.9897 91.4321 42.9887 91.4316 42.2256 91.4316C42.1226 91.2471 42.0192 91.0622 41.9131 90.8721C39.2529 86.1156 36.5156 81.4114 33.7256 76.7305C33.5265 76.3949 33.3272 76.0587 33.1221 75.7129C32.7982 75.1683 32.4716 74.6248 32.1416 74.084C31.7227 73.3851 31.3909 72.7802 31.2051 72.085C30.552 71.2485 29.8206 69.9201 29.3955 68.957C29.0622 68.3272 29.0619 68.327 28.5938 67.8262C27.5573 67.5828 26.8559 67.5105 25.8174 67.5312C25.5384 67.5277 25.2592 67.5242 24.9717 67.5205C24.0505 67.5114 23.1302 67.519 22.209 67.5264C21.5698 67.5232 20.9302 67.5188 20.291 67.5137C18.6097 67.5029 16.9284 67.5057 15.2471 67.5117C13.531 67.5154 11.8146 67.5064 10.0986 67.498C6.73234 67.4837 3.36632 67.4849 0 67.4932V59.5137H26.9307V59.6982ZM59.1816 25.9336C60.6424 26.4643 61.938 27.1902 63.2754 27.9697C63.4898 28.0936 63.7039 28.2181 63.9248 28.3457C64.4499 28.6491 64.9749 28.9528 65.499 29.2578C65.499 30.4601 65.175 30.9541 64.5859 31.9961C64.3914 32.3422 64.1966 32.6883 63.9961 33.0449C63.7857 33.4136 63.5752 33.7823 63.3584 34.1621C63.1441 34.541 62.9298 34.9202 62.709 35.3105C61.3913 37.6318 60.0466 39.9327 58.6592 42.2129C57.3382 44.3921 56.0684 46.6029 54.7871 48.8057C54.5003 49.2987 54.4998 49.2986 54.207 49.8018C54.0363 50.0956 53.8654 50.3896 53.6895 50.6924C53.1965 51.5343 53.1969 51.5346 52.6143 52.3701C52.127 53.1681 52.1265 53.1684 52.252 54.0352C52.5437 54.8957 52.8944 55.626 53.3467 56.4141C53.5167 56.7127 53.6862 57.0116 53.8613 57.3193C54.0465 57.639 54.232 57.9588 54.4229 58.2881C54.614 58.6219 54.805 58.9558 55.002 59.2998C55.6162 60.3703 56.2351 61.4384 56.8545 62.5059C57.0599 62.8602 57.2649 63.215 57.4766 63.5801C58.6311 65.5688 59.7912 67.5543 60.9541 69.5381C65.4988 77.2974 65.499 77.2981 65.499 78.4658C64.7587 78.8966 64.0172 79.3256 63.2754 79.7539C62.9633 79.9358 62.9629 79.9355 62.6445 80.1211C61.5148 80.7717 60.4115 81.3432 59.1816 81.79C57.764 79.5623 56.4421 77.2857 55.1289 74.9951C53.6721 72.4601 52.2112 69.9273 50.7236 67.4102C49.5087 65.3529 48.3105 63.2872 47.1318 61.209C46.7666 60.5654 46.3983 59.9233 46.0254 59.2842C45.8754 59.0241 45.7248 58.7641 45.5703 58.4961C45.4439 58.2797 45.3178 58.0628 45.1875 57.8398C44.248 55.8116 44.2188 53.195 44.7559 51.0537C45.7054 48.5189 47.1671 46.2093 48.542 43.8877C48.7798 43.4827 49.0174 43.0771 49.2549 42.6719C49.7855 41.7671 50.3184 40.8633 50.8516 39.96C51.6632 38.5835 52.4707 37.2046 53.2773 35.8252C53.53 35.3934 53.7825 34.9611 54.0352 34.5293C54.4129 33.8836 54.7907 33.2378 55.168 32.5918C56.4756 30.3528 57.7908 28.1223 59.1816 25.9336ZM75.8896 35.1807C76.1162 35.2991 76.3427 35.418 76.5762 35.54C77.7197 36.1451 78.7893 36.7479 79.7959 37.5703C79.5767 38.6616 79.1744 39.503 78.626 40.4688C78.3654 40.9291 78.3655 40.9298 78.0996 41.3994C77.8183 41.8905 77.8183 41.8906 77.5312 42.3916C77.3403 42.7291 77.1489 43.0664 76.9521 43.4141C75.9834 45.116 74.9936 46.7996 73.9551 48.46C73.7701 48.7578 73.5852 49.0564 73.3945 49.3633C73.042 49.9269 72.685 50.4878 72.3223 51.0449C71.6423 52.133 71.1681 52.8913 71.0967 54.1855C71.6673 55.6694 72.4682 56.9655 73.3125 58.3086C73.6768 58.9009 74.0403 59.4939 74.4033 60.0869C74.5842 60.3814 74.7648 60.6761 74.9512 60.9795C75.7073 62.2281 76.4258 63.4962 77.1357 64.7715C77.2517 64.9797 77.3679 65.1878 77.4873 65.4023C77.5976 65.6008 77.7076 65.7995 77.8213 66.0039C78.156 66.6052 78.4937 67.2056 78.8555 67.791C79.1928 68.3427 79.4971 68.9148 79.7959 69.4883C79.2151 71.2305 77.3708 72.0166 75.79 72.8311C74.8563 73.25 74.1787 73.4785 73.1465 73.4785C73.0295 73.2695 72.9125 73.06 72.792 72.8447C70.1557 68.1095 70.1552 68.1093 67.3691 63.4619C63.794 57.731 63.7936 57.7306 63.5039 55.1914C63.4739 54.9336 63.444 54.6758 63.4131 54.4102C63.2238 50.173 65.8401 46.5942 67.9561 43.1094C68.5798 42.08 69.1984 41.0475 69.8164 40.0146C71.0348 37.9794 72.2558 35.9457 73.4785 33.9131C74.2828 34.3342 75.0868 34.757 75.8896 35.1807ZM4.32227 66.8281H4.32324V66.1631H4.32227V66.8281ZM87.4424 42.2256C89.0763 42.7032 90.4358 43.4028 91.8896 44.2617C92.1026 44.3856 92.3157 44.5091 92.5352 44.6367C93.0552 44.9394 93.5743 45.2444 94.0928 45.5498C93.8816 46.5725 93.5352 47.3594 93.0117 48.2607C92.8644 48.5188 92.7173 48.7771 92.5654 49.043C92.2543 49.581 91.9421 50.1189 91.6299 50.6562C91.4826 50.9147 91.3354 51.1732 91.1836 51.4395C91.0482 51.673 90.912 51.9068 90.7725 52.1475C90.387 52.9658 90.1811 53.6242 90.1025 54.5273C90.3777 55.2612 90.3779 55.2617 90.8584 55.9404C91.0229 56.1974 91.188 56.454 91.3574 56.7188C91.5331 56.9828 91.7086 57.2475 91.8896 57.5195C92.2339 58.0444 92.5764 58.5707 92.916 59.0986C93.0695 59.3299 93.2227 59.5615 93.3809 59.7998C93.8011 60.5895 93.9583 61.2935 94.0928 62.1738C93.1738 62.7314 92.2515 63.2841 91.3291 63.8359C91.0679 63.9945 90.8062 64.154 90.5371 64.3174C90.2855 64.4673 90.0337 64.617 89.7744 64.7715C89.5429 64.9108 89.3108 65.0499 89.0723 65.1934C88.4402 65.4986 88.4398 65.499 87.4424 65.499C82.0128 55.9648 82.0137 55.9645 82.4561 51.8672C83.4094 48.3942 85.5818 45.2748 87.4424 42.2256ZM42.2246 16.292C42.5538 16.292 43.0564 16.7908 43.2227 16.957C43.6556 17.0842 43.6559 17.0841 44.0977 17.2139C45.3833 17.7879 46.1504 18.1551 47.1709 18.8271C47.4922 19.0371 47.8135 19.2476 48.1445 19.4639C48.5056 19.7042 48.5065 19.704 48.875 19.9492C48.4474 21.07 47.9638 22.1096 47.375 23.1543C47.2078 23.4511 47.0404 23.7489 46.8682 24.0547C46.5966 24.5321 46.5956 24.5322 46.3184 25.0195C46.0338 25.5214 46.0336 25.5219 45.7432 26.0342C44.111 28.8977 42.4256 31.7282 40.7158 34.5459C39.7426 36.1521 38.7843 37.7618 37.877 39.4062C35.7417 43.2713 33.7129 46.5268 29.2578 47.8779C27.8595 48.0274 26.4852 48.0049 25.0811 47.9609C24.7141 47.9549 24.3468 47.9486 23.9688 47.9424C23.0718 47.9268 22.175 47.9056 21.2783 47.8779C21.3095 47.8571 21.3409 47.8353 21.3721 47.8145C20.283 48.0298 18.6816 47.9171 17.7021 47.915C17.1135 47.915 17.1133 47.9151 16.5127 47.915C16.0888 47.9133 15.6643 47.9119 15.2275 47.9102C14.7938 47.9097 14.36 47.9097 13.9131 47.9092C12.7603 47.9079 11.6069 47.9041 10.4541 47.9004C9.2775 47.897 8.10043 47.8952 6.92383 47.8936C4.61588 47.89 2.30794 47.8848 0 47.8779V40.5635L15.7979 40.5684C26.6156 40.5829 27.5176 40.6391 27.9961 40.8496C29.6682 38.0023 31.3248 35.1459 32.9727 32.2842C34.4344 29.7473 35.9054 27.2153 37.3828 24.6875C39.0129 21.8983 40.6314 19.1024 42.2246 16.292ZM27.9287 8.3125C28.9103 8.51975 29.6824 8.83425 30.5518 9.33203C30.7874 9.46594 31.0238 9.59933 31.2666 9.7373C31.509 9.87712 31.7513 10.0171 32.001 10.1611C32.2487 10.3024 32.4967 10.4443 32.752 10.5898C33.3614 10.9375 33.97 11.2867 34.5781 11.6367C34.2865 12.9412 33.7219 13.997 33.0605 15.1484C32.8711 15.4813 32.8719 15.4818 32.6787 15.8213C31.4183 18.0227 30.1341 20.2108 28.8467 22.3965C28.6097 22.7989 28.3729 23.2017 28.1367 23.6045C27.7998 24.1785 27.4611 24.7515 27.1221 25.3242C26.9252 25.6577 26.7282 25.9914 26.5254 26.335C25.5914 27.8001 24.6619 28.9975 23.2109 29.9648C22.9801 30.1233 22.7495 30.2821 22.5117 30.4453C19.786 31.8849 17.3057 32.0557 14.2539 32.0156C13.845 32.0142 13.436 32.0132 13.0146 32.0117C11.7173 32.0062 10.4194 31.9932 9.12207 31.9805C8.23893 31.9749 7.3558 31.9709 6.47266 31.9668C4.31515 31.9558 2.15744 31.9385 0 31.918V24.2715C1.59235 24.2773 1.59242 24.2773 3.2168 24.2832C4.25546 24.2858 5.29434 24.2871 6.33301 24.2891C7.04966 24.2907 7.76675 24.293 8.4834 24.2959C9.51924 24.3 10.556 24.3023 11.5918 24.3037C11.9073 24.3054 12.2228 24.3068 12.5479 24.3086C13.464 24.3087 14.3781 24.2956 15.2939 24.2715C15.6252 24.2629 15.9566 24.254 16.2979 24.2451C16.6229 24.2276 16.9483 24.2104 17.2832 24.1924C17.5758 24.1784 17.8684 24.1639 18.1699 24.1494C19.2118 23.8683 19.5077 23.4012 20.0908 22.5137C20.4239 21.8803 20.7425 21.239 21.0498 20.5928C21.409 19.8988 21.7698 19.2057 22.1309 18.5127C22.3147 18.1506 22.4981 17.7881 22.6875 17.415C23.6801 15.5118 24.7787 13.6713 25.8711 11.8242C26.2683 11.146 26.6658 10.4676 27.0625 9.78906C27.3512 9.29683 27.6399 8.80462 27.9287 8.3125ZM13.9639 0C16.2599 1.12828 18.4765 2.28956 20.6133 3.70508C15.6072 13.2921 15.6075 13.2929 11.1885 15.2246C10.4469 15.4528 9.70256 15.5588 8.95312 15.6016V15.627H0V7.97949H9.37695C9.89819 7.09293 10.3994 6.1821 10.9092 5.26367C11.347 4.48179 11.7859 3.70029 12.2246 2.91895C12.4153 2.5766 12.6063 2.23358 12.8027 1.88086C13.1678 1.24053 13.559 0.615294 13.9639 0Z" fill="#F2F2F2"/>
</svg>
